<svg viewBox="0 0 3086 3037" fill="none" xmlns="http://www.w3.org/2000/svg"><g opacity=".2" fill="#2B3652" clip-path="url(#clip0)"><rect x="-747" y="890" width="725" height="1192.1" rx="34" transform="rotate(-30 -747 890)"/><rect x="20" y="693" width="864.1" height="979.2" rx="34" transform="rotate(-30 20 693)"/><rect x="974" y="530" width="1117.5" height="643.1" rx="34" transform="rotate(-30 974 530)"/><rect x="-94" y="1956" width="1968.1" height="405.6" rx="34" transform="rotate(-30 -94 1956)"/><rect x="74" y="2359" width="747.8" height="358.5" rx="34" transform="rotate(60 73 2359)"/><rect x="518" y="2135" width="727.3" height="466.4" rx="34" transform="rotate(-30 518 2135)"/><rect x="1658" y="952" width="609.5" height="396.2" rx="34" transform="rotate(-30 1658 952)"/><rect x="1183" y="1754" width="387.9" height="749.7" rx="34" transform="rotate(-30 1183 1754)"/><rect x="1556" y="1539" width="991.3" height="753.2" rx="34" transform="rotate(-30 1556 1539)"/><rect x="1595" y="2453" width="1242.1" height="455.8" rx="34" transform="rotate(-30 1595 2453)"/><rect x="661" y="-16" width="895.6" height="579.4" rx="34" transform="rotate(-30 661 -16)"/><rect x="2226" y="617" width="685.8" height="838.7" rx="34" transform="rotate(-30 2226 617)"/><rect x="2681" y="2405" width="603.4" height="613.9" rx="34" transform="rotate(-30 2681 2405)"/><rect x="2681" y="1406" width="762.8" height="301.3" rx="34" transform="rotate(-30 2681 1406)"/><rect x="1847" y="2896" width="930.9" height="591.4" rx="34" transform="rotate(-30 1847 2896)"/><rect x="2708" y="1810" width="553.3" height="449.3" rx="34" transform="rotate(-30 2708 1810)"/><rect x="392" y="2813" width="1177.7" height="753.2" rx="34" transform="rotate(-30 392 2813)"/><rect x="141" y="2352" width="383.6" height="466.4" rx="34" transform="rotate(-30 141 2352)"/><circle cx="2431" cy="77" r="300"/></g><defs><clipPath id="clip0"><path fill="#fff" d="M0 0h3086v3037H0z"/></clipPath></defs></svg>