<svg width="3086" height="2259" viewBox="0 0 3086 2259" fill="none" xmlns="http://www.w3.org/2000/svg">
<g clip-path="url(#clip0)">
<rect width="3086" height="2259" fill="#838383"/>
<rect y="-23" width="643" height="823" fill="#C4C4C4"/>
<rect x="678" y="124" width="802" height="676" fill="#C4C4C4"/>
<rect x="1520" y="356" width="760" height="444" fill="#C4C4C4"/>
<rect y="840" width="1840" height="280" fill="#C4C4C4"/>
<rect x="409" y="1158" width="675" height="322" fill="#C4C4C4"/>
<rect x="2320" y="440" width="705" height="360" fill="#C4C4C4"/>
<rect x="1120" y="1160" width="360" height="453" fill="#C4C4C4"/>
<rect x="1520" y="1160" width="920" height="520" fill="#C4C4C4"/>
<rect x="1520" y="1720" width="760" height="400" fill="#C4C4C4"/>
<rect x="1120" y="1640" width="360" height="400" fill="#C4C4C4"/>
<rect x="2486" y="840" width="600" height="579" fill="#C4C4C4"/>
<rect x="1880" y="840" width="560" height="280" fill="#C4C4C4"/>
<rect x="2486" y="1469" width="708" height="208" fill="#C4C4C4"/>
<rect x="2321" y="-3" width="704" height="404" fill="#C4C4C4"/>
<rect x="2320" y="1720" width="400" height="240" fill="#C4C4C4"/>
<rect x="201" y="1520" width="885" height="520" fill="#C4C4C4"/>
<rect x="2758" y="1716" width="328" height="244" fill="#C4C4C4"/>
<rect x="5" y="1158" width="356" height="322" fill="#C4C4C4"/>
</g>
<defs>
<clipPath id="clip0">
<rect width="3086" height="2259" fill="white"/>
</clipPath>
</defs>
</svg>
