<svg height="256" width="256" viewBox="0 0 256 256" preserveAspectRatio="xMaxYMid meet" xmlns="http://www.w3.org/2000/svg"><path d="M74.611 55.012c-32.278 23.407-21.365 72.2-21.365 72.2l6.867-6.803C52.169 78.04 70.705 63.665 70.705 63.665s3.949-8.684 3.906-8.653z"/><path d="M148.002 9.949c-8.425 4.542-72.89 44.229-73.391 45.064-28.748 47.87 2.271 92.726 2.271 92.726l19.715-16.755-2.48-7.82-13.971 10.814C65.115 110.07 65.088 68.55 78.51 59.265c9.642-6.143 15.364 6.624 9.169 11.4l6.545 1.672c9.182-5.886 67.174-43.063 70.043-44.86 8.813-5.52 2.54-27.665-16.265-17.528zM132.177 174.929l5.724 69.144a1.974 1.974 0 0 0 1.966 1.811h.027a1.973 1.973 0 0 0 1.943-1.864l3.967-71.615c-5.661 1.713-10.495 2.321-13.627 2.524zM197.331 210.05l-21.535-56.197c-2.322 2.37-5.35 5.062-9.246 7.903l27.312 50.221c.362.668 1.066 1.091 1.773 1.031a1.973 1.973 0 0 0 1.696-2.958zM114.298 122.914l-21.352 76.889a1.973 1.973 0 0 0 3.73 1.269l23.251-57.329zM134.818 113.864c-4.519 2.896-5.872 5.32-4.66 9.851l.411 1.538c1.294 4.837 3.281 5.921 7.756 3.97l1.344-.586c4.208-1.835 7.347-6.53 9.641-11.781l-2.698-10.085c-2.93 1.736-8.135 4.697-11.794 7.093z"/><path d="M190.4 152.382L162.652 36.977 92.279 75.54l3.232-4.886 65.363-41.072-.479-1.993a1.973 1.973 0 0 0-2.975-1.205L85.985 71.701a1.974 1.974 0 0 0-.85 2.173l32.777 123.402a1.977 1.977 0 0 0 1.908 1.467c.372 0 .742-.105 1.063-.311l68.662-43.926a1.976 1.976 0 0 0 .855-2.124zm-36.063 8.586c-2.529 1.501-5.374.158-6.323-3.019-.948-3.16.316-6.955 2.845-8.456s5.374-.158 6.338 3.003c.949 3.162-.331 6.971-2.86 8.472zm-.818-28.377l-1.843-6.89c-3.832 6.956-7.48 11.997-14.462 15.042l-1.526.665c-8.592 3.747-13.408 3.663-16.904-9.407l-.411-1.538c-3.193-11.936 1.984-16.494 9.378-20.977 6.439-3.958 10.025-5.871 16.934-9.918l-.633-2.366c-2.063-7.711-5.233-8.746-11.234-6.129-2.773 1.209-6.625 3.239-9.306 5.55l.883 6.283-8.774 3.826-3.854-14.407c5.8-4.48 14.116-9.256 19.662-11.675l3.669-1.6c10.475-4.568 17.415.449 20.608 12.385l6.879 25.716c1.485-.414 3.507-1.071 6.123-1.753l2.532 9.465z"/></svg>