<svg width="146" height="243" viewBox="0 0 146 243" fill="none" xmlns="http://www.w3.org/2000/svg"><g clip-path="url(#clip0)" fill="currentColor"><path d="M23.14 47.68c-32.28 23.41-21.36 72.2-21.36 72.2l6.86-6.8C.7 70.71 19.24 56.34 19.24 56.34s3.94-8.69 3.9-8.66z"/><path d="M96.53 2.62C88.11 7.16 23.64 46.85 23.14 47.7c-28.75 47.87 2.27 92.72 2.27 92.72l19.72-16.75-2.48-7.82-13.97 10.81c-15.04-23.9-15.06-65.43-1.64-74.71 9.64-6.15 15.36 6.62 9.17 11.4L42.75 65c9.19-5.89 67.18-43.06 70.05-44.86 8.81-5.52 2.54-27.67-16.27-17.53zM80.7 167.6l5.73 69.15a1.97 1.97 0 0 0 1.97 1.8h.02a1.97 1.97 0 0 0 1.95-1.86l3.96-71.61a61.32 61.32 0 0 1-13.62 2.52zM145.86 202.72l-21.53-56.2a73.69 73.69 0 0 1-9.25 7.9l27.31 50.23a1.9 1.9 0 0 0 1.78 1.03 1.97 1.97 0 0 0 1.7-2.96zM62.83 115.59l-21.35 76.89a1.97 1.97 0 0 0 3.73 1.27l23.25-57.33-5.63-20.83zM83.35 106.54c-4.52 2.9-5.87 5.32-4.66 9.85l.4 1.54c1.3 4.83 3.29 5.92 7.76 3.97l1.35-.59c4.2-1.84 7.35-6.53 9.64-11.78l-2.7-10.09c-2.93 1.74-8.13 4.7-11.8 7.1z"/><path d="M138.93 145.06L111.18 29.65 40.81 68.21l3.23-4.88 65.36-41.08-.48-1.99a1.97 1.97 0 0 0-2.97-1.2L34.51 64.37a1.97 1.97 0 0 0-.84 2.18l32.77 123.4a1.98 1.98 0 0 0 2.97 1.16l68.66-43.93c.71-.46 1.06-1.3.86-2.13zm-36.06 8.58c-2.53 1.5-5.38.16-6.33-3.02-.94-3.16.32-6.95 2.85-8.45 2.53-1.5 5.37-.16 6.34 3 .95 3.16-.33 6.97-2.86 8.47zm-.82-28.38l-1.84-6.89c-3.84 6.96-7.48 12-14.47 15.05l-1.52.66c-8.6 3.75-13.41 3.66-16.9-9.4l-.42-1.54c-3.19-11.94 1.99-16.5 9.38-20.98 6.44-3.96 10.03-5.87 16.94-9.92l-.64-2.37c-2.06-7.7-5.23-8.74-11.23-6.12-2.77 1.2-6.63 3.23-9.3 5.55l.88 6.28-8.78 3.82L60.3 85c5.8-4.48 14.11-9.26 19.66-11.68l3.67-1.6c10.47-4.57 17.41.45 20.6 12.39l6.88 25.71c1.49-.41 3.51-1.07 6.13-1.75l2.53 9.47-17.72 7.72z"/></g><defs><clipPath id="clip0"><path fill="#fff" d="M0 0h146v243H0z"/></clipPath></defs></svg>