<svg width="32" height="32" fill="none" xmlns="http://www.w3.org/2000/svg"><circle cx="16" cy="15.342" r="10.992" fill="#fff" filter="url(#filter0_f)"/><path d="M6.041 6.677C.634 10.598 2.462 18.772 2.462 18.772l1.15-1.14c-1.33-7.097 1.775-9.505 1.775-9.505s.661-1.455.654-1.45z" fill="#FF6746"/><path d="M17.785.433c-1.354.634-11.713 6.17-11.794 6.287-4.62 6.678.365 12.936.365 12.936l3.169-2.338-.399-1.09-2.245 1.508C4.465 14.4 4.46 8.608 6.618 7.313c1.55-.857 2.469.924 1.473 1.59l1.052.234C10.62 8.316 19.938 3.129 20.4 2.879c1.416-.77.408-3.86-2.614-2.446zm-.837 24.853l.68 6.212c.01.092.112.163.233.163h.004c.123-.001.224-.074.23-.167l.472-6.435a9.427 9.427 0 0 1-1.619.227zm7.738 3.155l-2.558-5.05a8.566 8.566 0 0 1-1.098.711l3.244 4.513c.043.06.126.098.21.092.129 0 .233-.08.233-.177a.146.146 0 0 0-.031-.089zM12.649 17.97L8.796 28.033c-.05.132.05.27.229.313.037.01.076.014.114.014.142 0 .275-.061.33-.161l4.198-7.503-1.017-2.726zm3.521-1.948c-.747.48-.97.88-.77 1.63l.068.254c.214.8.542.979 1.282.656l.222-.097c.696-.303 1.215-1.08 1.595-1.948l-.447-1.667c-.484.287-1.345.776-1.95 1.172z" fill="#FF6746"/><path d="M25.47 22.465l-4.659-18.66L9.598 9.65l-.197-.7c-.191-.114-.724-.442-1.421 0a.33.33 0 0 0-.142.365l5.49 20.671a.331.331 0 0 0 .498.194l11.502-7.358a.331.331 0 0 0 .143-.356zm-6.04 1.438c-.424.251-.9.026-1.06-.506-.158-.53.053-1.165.477-1.416.424-.252.9-.027 1.062.503.159.53-.056 1.167-.48 1.419zm-.137-4.753l-.309-1.155c-.642 1.165-1.253 2.01-2.423 2.52l-.255.111c-1.44.628-2.246.614-2.832-1.575l-.069-.258c-.534-2 .333-2.763 1.571-3.514 1.079-.663 1.68-.983 2.837-1.661l-.106-.397c-.346-1.291-.877-1.465-1.882-1.026-.464.202-1.11.542-1.559.93l.148 1.052-1.47.64-.645-2.412c.971-.751 2.364-1.551 3.293-1.956l.615-.268c1.755-.765 2.917.075 3.452 2.074l1.152 4.308c.25-.07.588-.18 1.026-.293l.424 1.585-2.968 1.294z" fill="#FF6746"/><defs><filter id="filter0_f" x="1.008" y=".35" width="29.984" height="29.984" filterUnits="userSpaceOnUse" color-interpolation-filters="sRGB"><feFlood flood-opacity="0" result="BackgroundImageFix"/><feBlend in="SourceGraphic" in2="BackgroundImageFix" result="shape"/><feGaussianBlur stdDeviation="2" result="effect1_foregroundBlur"/></filter></defs></svg>