<svg width="16" height="16" fill="none" xmlns="http://www.w3.org/2000/svg"><g clip-path="url(#a)"><path fill-rule="evenodd" clip-rule="evenodd" d="M15.6 1H9.17l-.41.18-.76.74-.76-.74-.4-.18H.4l-.58.58v11.7l.58.58h6.2l1 .99h.82l1-1h6.19l.58-.58V1.58L15.6 1ZM7.42 13.06l-.21-.2-.38-.17H1V2.17h5.6l.86.86-.03 10.03Zm7.6-.37H9.16l-.41.17-.16.16V2.99l.81-.82H15v10.52ZM5.65 4.5h-3.5v1.17h3.5V4.5Zm0 4.67h-3.5v1.17h3.5V9.18Zm-3.5-2.34h3.5V8h-3.5V6.84ZM13.83 4.5h-3.5v1.17h3.5V4.5Zm-3.5 2.33h3.5V8h-3.5V6.84Zm0 2.34h3.5v1.17h-3.5V9.18Z" fill="#000"/></g><defs><clipPath id="a"><path fill="#fff" d="M0 0h16v16H0z"/></clipPath></defs></svg>