<svg width="43" height="42" viewBox="0 0 43 42" xmlns="http://www.w3.org/2000/svg"><title>icon-github-octocat</title><path d="M21.412 0C9.588 0 0 9.586 0 21.411c0 9.46 6.135 17.486 14.643 20.318 1.07.198 1.462-.465 1.462-1.03 0-.511-.02-2.198-.029-3.987-5.956 1.295-7.213-2.526-7.213-2.526-.974-2.475-2.378-3.133-2.378-3.133-1.942-1.329.147-1.302.147-1.302 2.15.151 3.282 2.207 3.282 2.207 1.91 3.273 5.009 2.327 6.23 1.78.193-1.384.748-2.33 1.36-2.863-4.756-.542-9.755-2.378-9.755-10.582 0-2.338.836-4.248 2.206-5.747-.222-.54-.955-2.717.208-5.667 0 0 1.798-.575 5.89 2.195a20.523 20.523 0 0 1 5.359-.72c1.82.008 3.652.246 5.363.72 4.087-2.77 5.883-2.195 5.883-2.195 1.165 2.95.432 5.127.21 5.667 1.372 1.5 2.203 3.41 2.203 5.747 0 8.224-5.009 10.035-9.777 10.565.768.664 1.453 1.967 1.453 3.965 0 2.864-.025 5.17-.025 5.876 0 .57.385 1.237 1.47 1.027 8.504-2.835 14.63-10.858 14.63-20.315C42.823 9.586 33.237 0 21.413 0" fill="currentColor" fill-rule="evenodd"/></svg>