<svg xmlns="http://www.w3.org/2000/svg" viewBox="0 0 40 32"><title>blue/icon-ui-twitter-blue</title><path fill="currentColor" fill-rule="evenodd" d="M.2 27.8l.3.6 1.8 1a22.9 22.9 0 0 0 23-1 21.5 21.5 0 0 0 4.7-4c1.4-1.6 2.5-3.2 3.3-5a25.7 25.7 0 0 0 1.8-5c.4-1.8.6-3.5.6-5v-.8c1.6-1.2 2.8-2.5 3.7-4l.2-.3a.6.6 0 0 0-.2-.5.6.6 0 0 0-.5-.2c-.1 0-.3 0-.5.2a76.7 76.7 0 0 0-1.2.4 4 4 0 0 1-.4.1c.4-.4.8-1 1.1-1.6.4-.7.6-1.2.6-1.5a.6.6 0 0 0-.2-.5.7.7 0 0 0-.5-.1.6.6 0 0 0-.3 0c-1.6.9-3 1.5-4.4 1.8A8.3 8.3 0 0 0 27.2 0c-2.4 0-4.4.8-6 2.5a8 8 0 0 0-2.4 7A21.4 21.4 0 0 1 12 7.6a20.6 20.6 0 0 1-5.8-3.6L4 1.7a.8.8 0 0 0-.5-.3l-.6.3c-.3.6-.6 1.2-.8 2A8.8 8.8 0 0 0 1.8 6a8 8 0 0 0 1.9 5.3l-.6-.3-.7-.2a.9.9 0 0 0-.6.2.7.7 0 0 0-.3.5 8 8 0 0 0 1.1 4.1 8.5 8.5 0 0 0 3 3h-.2a.4.4 0 0 1-.1 0 3.7 3.7 0 0 0-.1 0 .3.3 0 0 0-.1 0 .6.6 0 0 0-.5.2.6.6 0 0 0-.2.4v.3A8.3 8.3 0 0 0 6.9 23a8.3 8.3 0 0 0 3.8 2 14.7 14.7 0 0 1-8.8 2.1 51.9 51.9 0 0 0-1 0 .6.6 0 0 0-.4.2.7.7 0 0 0-.2.4z"/></svg>