<svg xmlns="http://www.w3.org/2000/svg" width="32" height="32" fill="none" viewBox="0 0 32 32">
  <path fill="currentColor" d="M24.01 14.83a9.63 9.63 0 0 0-.41-.19c-.24-4.55-2.68-7.16-6.78-7.18h-.05a6.58 6.58 0 0 0-5.74 3l2.25 1.58a3.96 3.96 0 0 1 3.49-1.76h.04c1.34.01 2.36.4 3.02 1.19.48.57.8 1.35.96 2.34a16.9 16.9 0 0 0-3.87-.19c-3.9.23-6.4 2.55-6.23 5.76a4.98 4.98 0 0 0 2.24 3.96 6.83 6.83 0 0 0 4.18 1.06 6.13 6.13 0 0 0 4.75-2.35 8.8 8.8 0 0 0 1.62-4.32 5 5 0 0 1 2.08 2.33 5.9 5.9 0 0 1-1.4 6.4c-1.84 1.88-4.07 2.7-7.43 2.72-3.73-.03-6.55-1.25-8.38-3.63-1.72-2.22-2.6-5.44-2.64-9.55.04-4.11.92-7.33 2.64-9.55 1.83-2.38 4.65-3.6 8.38-3.63 3.76.03 6.63 1.26 8.53 3.64a11.91 11.91 0 0 1 2.1 4.36l2.64-.71a14.68 14.68 0 0 0-2.65-5.45C24.9 1.6 21.34.03 16.74 0h-.02C12.13.03 8.61 1.6 6.23 4.68c-2.1 2.73-3.2 6.54-3.23 11.3v.03c.04 4.77 1.13 8.58 3.23 11.31 2.37 3.07 5.9 4.65 10.5 4.68h.01c4.08-.03 6.96-1.12 9.33-3.53a8.8 8.8 0 0 0 1.98-9.55 8.1 8.1 0 0 0-4.04-4.09Zm-7.04 6.75c-1.71.1-3.48-.68-3.57-2.35-.07-1.24.87-2.63 3.67-2.8l.95-.02c1.02 0 1.97.1 2.84.3-.33 4.11-2.22 4.78-3.9 4.88Z"/>
</svg>
