<svg width="16" height="16" viewBox="0 0 16 16" xmlns="http://www.w3.org/2000/svg"><path fill-rule="evenodd" clip-rule="evenodd" d="M15.4286 1H9.14286L8.74286 1.17722L8 1.93333L7.25714 1.17722L6.85714 1H0.571429L0 1.59072V13.4051L0.571429 13.9958H6.61714L7.6 15H8.4L9.38286 13.9958H15.4286L16 13.4051V1.59072L15.4286 1ZM7.42857 13.1924L7.22286 12.9916L6.85714 12.8143H1.14286V2.18143H6.61714L7.46286 3.0557L7.42857 13.1924ZM14.8571 12.8143H9.14286L8.74286 12.9916L8.58286 13.1451V3.00844L9.38286 2.18143H14.8571V12.8143ZM5.71429 4.5443H2.28571V5.72574H5.71429V4.5443ZM5.71429 9.27004H2.28571V10.4515H5.71429V9.27004ZM2.28571 6.90717H5.71429V8.08861H2.28571V6.90717ZM13.7143 4.5443H10.2857V5.72574H13.7143V4.5443ZM10.2857 6.90717H13.7143V8.08861H10.2857V6.90717ZM10.2857 9.27004H13.7143V10.4515H10.2857V9.27004Z"/></svg>
