<svg xmlns="http://www.w3.org/2000/svg" width="37" height="36" viewBox="0 0 37 36"><path fill="currentColor" fill-rule="evenodd" d="M20.103 3.6831l-6.2372 6.2362 2.4034 2.4025 6.2372-6.2358c2.3182-2.3192 6.0903-2.3192 8.4095 0 2.3192 2.3187 2.3192 6.0913 0 8.41l-6.2367 6.2372 2.4038 2.4033 6.2372-6.2362c3.643-3.6448 3.6434-9.5733-.0005-13.2167C29.6754.0387 23.746.0392 20.103 3.683zM7.0874 29.9154c-1.1236-1.1231-1.7429-2.6172-1.7429-4.2043 0-1.5894.618-3.0826 1.7415-4.2052l.001-.0005 6.2367-6.2371-2.4034-2.4025-6.2363 6.2358v.001c-1.7648 1.7648-2.7373 4.112-2.736 6.6071-.0013 2.496.9721 4.8433 2.7365 6.6081 3.643 3.6425 9.5724 3.6435 13.2172 0l6.2358-6.2362-2.4039-2.403-6.2362 6.2363c-2.3192 2.3183-6.0917 2.3192-8.41.0005zm6.3074-3.905L27.0119 12.393l-2.4034-2.4034-13.6166 13.618 2.4029 2.403z"/></svg>
