<svg xmlns="http://www.w3.org/2000/svg" viewBox="0 0 51 31"><defs/><path fill="currentColor" fill-rule="evenodd" d="M49.6 13.7C45.6 9.7 36.2 0 25.2 0 14.3 0 4.7 9.6.7 13.7c-1 1-1 2.6 0 3.6 4 4 13.4 13.7 24.5 13.7 10.9 0 20.4-9.7 24.4-13.7 1-1 1-2.6 0-3.6zM25.1 27.5c-5.6 0-10.2-5.3-10.2-12S19.5 3.8 25.1 3.8c5.7 0 10.2 5.3 10.2 11.9 0 6.6-4.5 12-10.2 12zM27.8 15c-1.8 0-3.4-1.7-3.4-4 0-1.2.5-2.3 1.3-3a5.8 5.8 0 00-.8 0c-3.6 0-6.6 3.4-6.6 7.6s3 7.6 6.6 7.6c3.6 0 6.6-3.4 6.6-7.6a8.7 8.7 0 00-.6-3c-.5 1.4-1.7 2.4-3 2.4z"/></svg>