<svg width="16" height="16" xmlns="http://www.w3.org/2000/svg"><path fill-rule="evenodd" clip-rule="evenodd" d="M8 1.5c-2.36 0-4 1.69-4 3.75 0 .98.42 1.63.98 2.3l.22.26c.22.26.47.55.67.84.29.42.54.9.62 1.5a.75.75 0 0 1-1.48.2 1.97 1.97 0 0 0-.37-.84 8.7 8.7 0 0 0-.54-.68l-.27-.32A4.88 4.88 0 0 1 2.5 5.25C2.5 2.31 4.86 0 8 0s5.5 2.31 5.5 5.25c0 1.52-.7 2.5-1.33 3.26l-.27.32c-.2.24-.38.45-.54.68-.2.3-.33.56-.37.85a.75.75 0 1 1-1.48-.22c.08-.59.34-1.07.62-1.49.2-.29.45-.58.67-.84l.21-.26c.57-.67.99-1.32.99-2.3 0-2.06-1.64-3.75-4-3.75ZM6 15.25a.75.75 0 0 1 .75-.75h2.5a.75.75 0 1 1 0 1.5h-2.5a.75.75 0 0 1-.75-.75ZM5.75 12a.75.75 0 1 0 0 1.5h4.5a.75.75 0 1 0 0-1.5h-4.5Z"/></svg>