<svg width="16" height="16" fill="none" xmlns="http://www.w3.org/2000/svg"><path d="M8 0a8.13 8.13 0 0 0-5.71 2.52A8.27 8.27 0 0 0 0 8.37v3.74a3.25 3.25 0 0 0 1.98 2.98 3.17 3.17 0 0 0 3.48-.7A3.24 3.24 0 0 0 3.2 8.88a3.1 3.1 0 0 0-1.6.45v-.96a6.65 6.65 0 0 1 1.82-4.71c1.2-1.27 2.84-2 4.58-2.05 1.74.05 3.38.78 4.58 2.05a6.65 6.65 0 0 1 1.82 4.7v.97a3.1 3.1 0 0 0-3.38.1 3.22 3.22 0 0 0-1.36 3.3 3.24 3.24 0 0 0 2.52 2.54 3.17 3.17 0 0 0 3.28-1.37c.35-.53.54-1.16.54-1.8V8.38a8.27 8.27 0 0 0-2.29-5.85A8.13 8.13 0 0 0 8 0Z" fill="#000"/></svg>