<svg xmlns="http://www.w3.org/2000/svg" width="32" height="32" fill="none">
  <path fill="currentColor" d="M24.01 14.831c-.135-.066-.273-.13-.412-.19-.242-4.551-2.68-7.157-6.776-7.184h-.056c-2.449 0-4.486 1.066-5.74 3.006l2.252 1.576c.937-1.45 2.407-1.758 3.49-1.758h.037c1.348.009 2.366.408 3.024 1.188.48.568.8 1.352.959 2.342-1.196-.207-2.489-.271-3.87-.19-3.894.228-6.397 2.544-6.23 5.761.086 1.632.883 3.036 2.246 3.953 1.152.775 2.636 1.155 4.177 1.069 2.037-.114 3.634-.906 4.748-2.355.847-1.1 1.382-2.525 1.618-4.321.971.597 1.69 1.383 2.087 2.327.676 1.606.715 4.245-1.396 6.396-1.85 1.885-4.075 2.7-7.436 2.726-3.728-.029-6.548-1.248-8.38-3.624-1.718-2.225-2.605-5.44-2.638-9.553.033-4.114.92-7.328 2.637-9.553 1.833-2.376 4.653-3.595 8.381-3.624 3.756.029 6.624 1.254 8.528 3.642.933 1.17 1.637 2.643 2.1 4.36l2.64-.718c-.562-2.113-1.447-3.934-2.651-5.445C24.909 1.602 21.339.032 16.74 0h-.018C12.134.032 8.605 1.607 6.234 4.68 4.124 7.414 3.037 11.22 3 15.989v.022c.037 4.77 1.125 8.575 3.234 11.31 2.371 3.072 5.9 4.647 10.49 4.679h.017c4.08-.029 6.956-1.118 9.325-3.532 3.1-3.157 3.007-7.115 1.985-9.544-.733-1.743-2.13-3.158-4.041-4.093Zm-7.044 6.753c-1.707.099-3.48-.683-3.567-2.355-.065-1.24.866-2.625 3.671-2.79.322-.018.637-.028.947-.028 1.019 0 1.972.101 2.84.294-.324 4.118-2.22 4.786-3.891 4.88Z"/>
</svg>