<svg xmlns="http://www.w3.org/2000/svg" fill="none" viewBox="0 0 32 32"><g clip-path="url(#a)"><path fill="currentColor" d="M30 15.5c0 2.914 0 4.878-.065 5.963-.131 2.642-.85 4.675-2.29 6.098s-3.337 2.236-5.888 2.371C20.71 30 18.747 30 16 30c-2.813 0-4.71 0-5.757-.068-2.551-.135-4.514-.88-5.888-2.371-1.374-1.423-2.159-3.456-2.29-6.098C2 20.378 2 18.346 2 15.5s0-4.879.065-5.963c.131-2.642.85-4.675 2.29-6.098 1.374-1.423 3.337-2.236 5.888-2.371C11.29 1 13.253 1 16 1c2.813 0 4.71 0 5.757.068 2.551.135 4.514.88 5.888 2.371 1.374 1.49 2.159 3.456 2.29 6.098 0 1.084.065 3.05.065 5.963ZM17.374 3.575H12.729c-.458 0-1.047 0-1.766.068-.72 0-1.374.067-1.898.203a5.278 5.278 0 0 0-1.308.339 6.278 6.278 0 0 0-1.635 1.084c-.458.474-.786 1.016-1.047 1.694-.131.338-.262.813-.327 1.355-.066.542-.131 1.152-.197 1.965 0 .745-.065 1.355-.065 1.83v6.775c0 .474 0 1.084.065 1.83 0 .745.066 1.422.197 1.964.13.542.196 1.017.327 1.355a6.56 6.56 0 0 0 1.046 1.694c.458.475.982.813 1.636 1.084a5.28 5.28 0 0 0 1.308.34c.524.067 1.113.135 1.898.203.785.067 1.308.067 1.766.067h6.542c.458 0 1.047 0 1.766-.067.72 0 1.374-.068 1.898-.204a5.28 5.28 0 0 0 1.308-.339 6.278 6.278 0 0 0 1.636-1.084c.457-.474.785-1.016 1.046-1.694.131-.338.262-.813.327-1.355.066-.542.131-1.152.197-1.965 0-.745.065-1.355.065-1.83v-6.775c0-.474 0-1.084-.065-1.83 0-.745-.066-1.422-.197-1.964a5.782 5.782 0 0 0-.327-1.355 6.56 6.56 0 0 0-1.047-1.694c-.457-.475-.98-.813-1.635-1.084a5.279 5.279 0 0 0-1.308-.34 43.11 43.11 0 0 0-1.898-.202c-.72 0-1.308-.068-1.766-.068h-1.897Zm3.663 6.64c1.374 1.423 2.094 3.184 2.094 5.285 0 2.1-.72 3.794-2.094 5.285-1.373 1.423-3.074 2.168-5.102 2.168-2.029 0-3.664-.745-5.103-2.168-1.374-1.423-2.094-3.184-2.094-5.285 0-2.1.72-3.794 2.094-5.285 1.374-1.423 3.074-2.168 5.103-2.168 2.028 0 3.729.677 5.102 2.168Zm-1.766 8.673c.916-.949 1.374-2.1 1.374-3.388 0-1.287-.458-2.507-1.374-3.456-.916-.948-2.028-1.423-3.336-1.423-1.309 0-2.421.475-3.337 1.423-.916.949-1.374 2.1-1.374 3.456 0 1.355.458 2.507 1.374 3.388.916.948 2.028 1.423 3.337 1.423 1.308 0 2.42-.475 3.336-1.423Zm5.364-12.4c.328.34.524.746.524 1.22s-.196.88-.523 1.22c-.328.338-.72.542-1.178.542-.458 0-.85-.204-1.178-.542-.327-.34-.523-.746-.523-1.22s.196-.88.523-1.22c.328-.338.72-.542 1.178-.542.458 0 .85.204 1.178.542Z"/></g><defs><clipPath id="a"><path fill="#fff" d="M0 0h32v32H0z"/></clipPath></defs></svg>
