<svg xmlns="http://www.w3.org/2000/svg" width="36" height="36" viewBox="0 0 36 36">
  <path d="M3.09320467,3.09899831 C-0.448290531,6.68532256 -0.358632425,12.3786123 3.13803372,15.8304494 L9.279614,21.9272006 C9.86239169,22.5548074 10.5348275,23.092756 11.2969214,23.4513884 C15.3763652,25.8273282 20.5765354,24.5272857 23.1317914,20.7168162 L19.4558091,17.175321 C18.6488861,19.0581412 16.5867497,20.1340385 14.4349551,19.8650642 C13.6280321,19.6409189 12.9107673,19.2374574 12.2831606,18.6546797 L6.5002127,12.8717319 C4.75187963,11.1233988 4.93119584,8.29916847 6.58987081,6.5508354 C8.33820388,4.89216043 11.1176052,4.80250233 12.8211092,6.50600634 L14.0314936,7.67156173 C15.6901686,7.04395498 17.5729888,6.50600634 19.9937577,7.26810025 L15.8694848,3.09899831 C12.4176477,-0.308009729 6.63469986,-0.487325942 3.09320467,3.09899831 Z M23.0421333,10.7647664 C18.9178604,8.43365563 13.7176903,9.73369817 11.1624342,13.4993386 L14.8384166,17.0408338 C15.6453395,15.1580136 17.6626469,14.0821163 19.8144415,14.3959197 C20.6213644,14.5752359 21.3834583,14.9338683 21.966236,15.6063041 L27.5698677,21.1202777 C29.3182007,22.8686107 29.1388845,25.6928411 27.4802096,27.4411742 C25.8215346,29.0998491 22.9524752,29.1895072 21.2489712,27.4860032 L20.0385867,26.3204478 C18.3799118,26.9928836 16.4970915,27.5308323 14.0763227,26.7239093 L18.2005956,30.8930112 C21.6524327,34.3896774 27.4353805,34.4793355 30.9768757,30.9378403 C34.5183709,27.306687 34.4287128,21.6582263 30.9320467,18.1615602 L25.0146116,12.2441251 C24.3870049,11.6613475 23.7593982,11.1233988 23.0421333,10.7647664 Z" transform="matrix(1 0 0 -1 .965 34.996)"/>
</svg>
