<svg xmlns="http://www.w3.org/2000/svg" viewBox="0 0 500 500"><path d="M130 226.7v42l31.4-21zM238.5 196.1v-58.6L140 203.2l44 29.4zM362.1 203.2l-98.5-65.7v58.6l54.5 36.5zM140 292.3l98.5 65.6v-58.6L184 262.8zM263.6 299.3v58.6l98.5-65.6-44-29.5zM251.1 218l-44.5 29.7 44.5 29.7 44.4-29.7z"/><path d="M251.1 11.2a236.5 236.5 0 100 473 236.5 236.5 0 000-473zm146.2 281.1l-.1 1.6-.1.5-.2 1.1-.2.6-.3.9-.3.6-.4.8a2 2 0 01-.4.6l-.5.8-.4.5-.6.7-.5.5-.7.6-.6.4-.2.2L258 391.9a12.7 12.7 0 01-14 0l-133.7-89.1-.2-.2-.6-.4-.7-.6-.5-.5-.6-.7-.4-.5-.5-.8a2 2 0 00-.4-.6l-.4-.8-.3-.6-.3-.9-.2-.6-.2-1.1-.1-.5-.1-1.6v-89.1l.1-1.6.1-.5.2-1.1.2-.6.3-.9.3-.6.4-.8.4-.6.5-.8.4-.5.6-.7.5-.5.7-.6.6-.4.2-.2L244 103.8c4.2-2.8 9.7-2.8 13.9 0l133.7 89.1.2.2.6.4.7.6.5.5.6.7.4.5.5.8.4.6.4.8.3.6.3.9.2.6.2 1.1.1.5.1 1.6v89z"/><path d="M372.2 268.7v-42l-31.5 21z"/></svg>