<svg width="256" height="256" viewBox="0 0 256 256" fill="none" xmlns="http://www.w3.org/2000/svg">
<g filter="url(#filter0_d)">
<path d="M71.8046 56.9738C39.9958 80.0318 50.7501 128.097 50.7501 128.097L57.5173 121.396C49.6888 79.6584 67.9554 65.4978 67.9554 65.4978C67.9554 65.4978 71.847 56.9432 71.8046 56.9738V56.9738Z" fill="#304069"/>
<path d="M144.129 12.5826C135.826 17.0569 72.2983 56.1522 71.8046 56.9748C43.4745 104.131 74.0426 148.318 74.0426 148.318L93.471 131.813L91.0271 124.11L77.2591 134.762C62.4466 111.211 62.42 70.3099 75.6469 61.1634C85.1488 55.1119 90.7876 67.6886 84.6827 72.3934L91.1325 74.0405C100.181 68.2422 157.33 31.6195 160.157 29.8493C168.842 24.4116 162.661 2.59676 144.129 12.5826V12.5826Z" fill="#304069"/>
<path d="M128.534 175.103L134.174 243.216C134.258 244.225 135.102 245 136.112 245H136.139C137.16 244.986 137.997 244.183 138.053 243.164L141.963 172.616C136.384 174.304 131.62 174.903 128.534 175.103V175.103Z" fill="#304069"/>
<path d="M192.741 209.7L171.519 154.341C169.231 156.676 166.247 159.328 162.407 162.126L189.322 211.599C189.679 212.257 190.373 212.673 191.069 212.614C192.137 212.607 193 211.739 193 210.671C193 210.317 192.905 209.987 192.741 209.7V209.7Z" fill="#304069"/>
<path d="M110.915 123.863L89.8731 199.606C89.5972 200.599 90.1441 201.634 91.1197 201.966C91.3267 202.036 91.5386 202.071 91.7465 202.071C92.5171 202.071 93.2434 201.609 93.5489 200.856L116.462 144.382L110.915 123.863Z" fill="#304069"/>
<path d="M131.136 114.948C126.683 117.801 125.35 120.189 126.544 124.652L126.949 126.167C128.224 130.932 130.183 132 134.592 130.078L135.917 129.501C140.064 127.693 143.157 123.068 145.418 117.896L142.759 107.961C139.872 109.671 134.742 112.588 131.136 114.948V114.948Z" fill="#304069"/>
<path d="M185.911 152.892L158.566 39.2077L89.2158 77.1957L92.4008 72.3826L156.814 31.9229L156.342 29.9596C156.195 29.3489 155.762 28.8475 155.181 28.612C154.599 28.3786 153.939 28.4367 153.41 28.7726L83.0133 73.414C82.2969 73.8691 81.9579 74.735 82.1757 75.5546L114.476 197.117C114.636 197.717 115.072 198.204 115.651 198.43C115.879 198.519 116.118 198.562 116.356 198.562C116.723 198.562 117.088 198.458 117.404 198.255L185.068 154.984C185.766 154.537 186.104 153.698 185.911 152.892V152.892ZM150.372 161.35C147.88 162.829 145.076 161.506 144.141 158.376C143.206 155.263 144.452 151.525 146.944 150.046C149.437 148.568 152.24 149.891 153.19 153.004C154.125 156.119 152.864 159.871 150.372 161.35V161.35ZM149.566 133.396L147.749 126.609C143.973 133.461 140.378 138.427 133.498 141.427L131.994 142.082C123.527 145.773 118.781 145.69 115.336 132.815L114.931 131.3C111.784 119.542 116.886 115.052 124.172 110.636C130.518 106.737 134.051 104.852 140.86 100.865L140.236 98.5348C138.203 90.9387 135.079 89.9192 129.166 92.4971C126.433 93.6881 122.637 95.6879 119.995 97.9644L120.865 104.154L112.219 107.923L108.421 93.7305C114.136 89.3173 122.331 84.6125 127.797 82.2295L131.412 80.6534C141.735 76.1535 148.574 81.0957 151.721 92.8537L158.5 118.186C159.963 117.779 161.956 117.131 164.534 116.459L167.029 125.783L149.566 133.396Z" fill="#304069"/>
</g>
<defs>
<filter id="filter0_d" x="46" y="10" width="147" height="239" filterUnits="userSpaceOnUse" color-interpolation-filters="sRGB">
<feFlood flood-opacity="0" result="BackgroundImageFix"/>
<feColorMatrix in="SourceAlpha" type="matrix" values="0 0 0 0 0 0 0 0 0 0 0 0 0 0 0 0 0 0 127 0"/>
<feOffset dx="-2" dy="3"/>
<feGaussianBlur stdDeviation="0.5"/>
<feColorMatrix type="matrix" values="0 0 0 0 1 0 0 0 0 0.661667 0 0 0 0 0.516667 0 0 0 1 0"/>
<feBlend mode="normal" in2="BackgroundImageFix" result="effect1_dropShadow"/>
<feBlend mode="normal" in="SourceGraphic" in2="effect1_dropShadow" result="shape"/>
</filter>
</defs>
</svg>
